<svg xmlns="http://www.w3.org/2000/svg" xmlns:xlink="http://www.w3.org/1999/xlink" xml:space="preserve" version="1.1" style="shape-rendering:geometricPrecision;text-rendering:geometricPrecision;image-rendering:optimizeQuality;" viewBox="0 0 639 652.5" x="0px" y="0px" fill-rule="evenodd" clip-rule="evenodd"><defs><style type="text/css">
   
    .fil0 {fill:black}
   
  </style></defs><g><path class="fil0" d="M555 522l-2 -216 -235 -187 -221 188 -3 215 180 0c0,-35 0,-69 0,-104 0,-33 26,-45 55,-45 25,0 45,20 45,45l0 104 181 0z"/><polygon class="fil0" points="0,266 315,0 447,105 447,28 555,28 555,187 639,266 605,307 315,77 36,310 "/></g><text x="0" y="537" fill="#000000" font-size="5px" font-weight="bold" font-family="'Helvetica Neue', Helvetica, Arial-Unicode, Arial, Sans-serif">Created by mohkamil</text><text x="0" y="542" fill="#000000" font-size="5px" font-weight="bold" font-family="'Helvetica Neue', Helvetica, Arial-Unicode, Arial, Sans-serif">from the Noun Project</text></svg>